<svg width="15" height="15" viewBox="0 0 15 15" fill="none" xmlns="http://www.w3.org/2000/svg">
<path d="M15 12.0707C15 12.4074 14.8822 12.6936 14.6465 12.9293L12.9293 14.6465C12.6936 14.8822 12.4074 15 12.0707 15C11.734 15 11.4478 14.8822 11.2121 14.6465L7.5 10.9343L3.78788 14.6465C3.55219 14.8822 3.26599 15 2.92929 15C2.59259 15 2.3064 14.8822 2.07071 14.6465L0.353535 12.9293C0.117845 12.6936 0 12.4074 0 12.0707C0 11.734 0.117845 11.4478 0.353535 11.2121L4.06566 7.5L0.353535 3.78788C0.117845 3.55219 0 3.26599 0 2.92929C0 2.59259 0.117845 2.3064 0.353535 2.07071L2.07071 0.353535C2.3064 0.117845 2.59259 0 2.92929 0C3.26599 0 3.55219 0.117845 3.78788 0.353535L7.5 4.06566L11.2121 0.353535C11.4478 0.117845 11.734 0 12.0707 0C12.4074 0 12.6936 0.117845 12.9293 0.353535L14.6465 2.07071C14.8822 2.3064 15 2.59259 15 2.92929C15 3.26599 14.8822 3.55219 14.6465 3.78788L10.9343 7.5L14.6465 11.2121C14.8822 11.4478 15 11.734 15 12.0707Z" fill="#D40000"/>
</svg>
